<?xml version="1.0" standalone="no"?>
<!DOCTYPE svg PUBLIC "-//W3C//DTD SVG 20010904//EN"
 "http://www.w3.org/TR/2001/REC-SVG-20010904/DTD/svg10.dtd">
<svg version="1.0" xmlns="http://www.w3.org/2000/svg"
 width="113.000000pt" height="180.000000pt" viewBox="0 0 113.000000 180.000000"
 preserveAspectRatio="xMidYMid meet">

<g transform="translate(0.000000,180.000000) scale(0.100000,-0.100000)"
fill="#000000" stroke="none">
<path d="M396 1718 c-27 -41 -34 -110 -46 -446 -12 -308 -12 -334 4 -351 16
-18 15 -19 -30 -30 -104 -26 -124 -66 -124 -249 0 -213 56 -430 128 -495 12
-11 59 -23 130 -34 104 -15 117 -15 213 0 57 10 113 24 125 32 29 19 77 120
97 205 39 159 47 386 18 466 -13 33 -64 67 -118 79 -31 6 -32 7 -18 29 13 20
14 57 5 282 -5 142 -12 302 -16 354 -6 94 -23 157 -47 172 -7 4 -78 8 -159 8
-142 0 -148 -1 -162 -22z m268 -830 c-47 -8 -168 -8 -208 1 -17 3 32 6 109 6
82 0 122 -3 99 -7z m-427 -325 c-2 -16 -4 -5 -4 22 0 28 2 40 4 28 2 -13 2
-35 0 -50z m10 -70 c-3 -10 -5 -4 -5 12 0 17 2 24 5 18 2 -7 2 -21 0 -30z m52
-187 c17 -43 51 -86 75 -97 17 -7 18 -9 2 -6 -44 5 -108 126 -121 228 -4 32 0
25 13 -26 11 -38 24 -83 31 -99z m578 142 c-3 -8 -6 -5 -6 6 -1 11 2 17 5 13
3 -3 4 -12 1 -19z m-21 -89 c-20 -65 -60 -135 -87 -150 -11 -6 -23 -8 -26 -6
-2 3 5 8 16 12 27 8 65 74 88 152 10 35 19 59 21 54 2 -5 -4 -33 -12 -62z
m-337 -175 c8 -7 -63 -2 -94 7 -20 5 -9 6 30 2 33 -3 62 -7 64 -9z m186 6
c-16 -4 -46 -8 -65 -7 l-35 0 40 7 c22 4 51 7 65 7 22 1 22 0 -5 -7z m-122
-17 c-7 -2 -21 -2 -30 0 -10 3 -4 5 12 5 17 0 24 -2 18 -5z"/>
</g>
</svg>
