<?xml version="1.0" standalone="no"?>
<!DOCTYPE svg PUBLIC "-//W3C//DTD SVG 20010904//EN"
 "http://www.w3.org/TR/2001/REC-SVG-20010904/DTD/svg10.dtd">
<svg version="1.0" xmlns="http://www.w3.org/2000/svg"
 width="112.000000pt" height="173.000000pt" viewBox="0 0 112.000000 173.000000"
 preserveAspectRatio="xMidYMid meet">

<g transform="translate(0.000000,173.000000) scale(0.100000,-0.100000)"
fill="#000000" stroke="none">
<path d="M415 1578 c-13 -140 -50 -689 -46 -693 8 -8 341 -5 341 3 1 28 -52
730 -55 740 -3 9 -36 12 -119 12 l-114 0 -7 -62z"/>
<path d="M295 810 l-40 -19 280 1 280 0 -40 19 c-35 16 -64 18 -240 18 -173 0
-205 -3 -240 -19z"/>
<path d="M230 693 c0 -47 30 -258 51 -360 l10 -53 57 -17 c106 -32 401 -18
431 21 7 10 51 271 67 404 l6 52 -311 0 -311 0 0 -47z"/>
<path d="M306 203 c4 -15 13 -48 19 -73 l11 -45 199 0 199 0 17 70 c10 38 17
71 15 72 -12 13 -38 -17 -49 -55 l-13 -47 -169 0 -170 0 -9 45 c-11 53 -6 46
-34 55 -21 6 -22 4 -16 -22z"/>
</g>
</svg>
