<?xml version="1.0" standalone="no"?>
<!DOCTYPE svg PUBLIC "-//W3C//DTD SVG 20010904//EN"
 "http://www.w3.org/TR/2001/REC-SVG-20010904/DTD/svg10.dtd">
<svg version="1.0" xmlns="http://www.w3.org/2000/svg"
 width="207.000000pt" height="143.000000pt" viewBox="0 0 207.000000 143.000000"
 preserveAspectRatio="xMidYMid meet">

<g transform="translate(0.000000,143.000000) scale(0.100000,-0.100000)"
fill="#000000" stroke="none">
<path d="M124 1331 c-33 -21 -63 -45 -66 -53 -6 -14 95 -303 113 -325 6 -6 17
-9 25 -6 8 3 20 0 27 -6 19 -15 209 96 205 120 -2 9 3 23 10 32 12 14 -1 33
-99 146 -78 91 -118 131 -133 131 -12 0 -48 -18 -82 -39z"/>
<path d="M340 972 l-23 -18 94 -162 c52 -89 99 -161 105 -162 5 0 18 6 28 13
17 13 12 24 -74 173 -51 87 -96 163 -100 167 -4 4 -17 -1 -30 -11z"/>
<path d="M543 620 c-18 -11 -33 -23 -33 -27 0 -5 11 -42 25 -84 29 -85 42 -95
96 -72 45 19 69 42 69 67 0 23 -94 136 -113 136 -7 0 -27 -9 -44 -20z"/>
<path d="M836 474 c-44 -8 -100 -21 -125 -29 -44 -14 -40 -14 84 -9 224 11
379 -17 500 -89 206 -121 369 -158 540 -123 44 9 83 20 87 24 4 4 -48 7 -115
7 -151 1 -243 24 -372 95 -157 87 -210 110 -281 125 -86 18 -214 18 -318 -1z"/>
</g>
</svg>
