<?xml version="1.0" standalone="no"?>
<!DOCTYPE svg PUBLIC "-//W3C//DTD SVG 20010904//EN"
 "http://www.w3.org/TR/2001/REC-SVG-20010904/DTD/svg10.dtd">
<svg version="1.0" xmlns="http://www.w3.org/2000/svg"
 width="105.000000pt" height="184.000000pt" viewBox="0 0 105.000000 184.000000"
 preserveAspectRatio="xMidYMid meet">

<g transform="translate(0.000000,184.000000) scale(0.100000,-0.100000)"
fill="#000000" stroke="none">
<path d="M362 1737 c-22 -23 -22 -28 -22 -367 0 -306 2 -345 17 -362 15 -17
13 -18 -61 -18 -103 0 -145 -23 -146 -81 0 -14 27 -186 59 -383 56 -339 61
-360 87 -387 l28 -29 197 0 c183 0 198 1 222 21 15 11 31 37 37 57 10 38 120
702 120 729 0 8 -13 28 -29 44 -28 27 -34 29 -111 29 l-81 0 15 22 c14 19 16
71 16 361 l0 338 -25 24 c-23 24 -29 25 -163 25 -132 0 -140 -1 -160 -23z
m492 -788 c18 -15 26 -30 26 -52 l-1 -32 -14 32 c-7 17 -22 36 -34 42 -27 15
-585 15 -612 0 -12 -6 -27 -25 -34 -42 l-14 -32 0 30 c-1 72 10 74 355 75 290
0 302 -1 328 -21z m-40 -25 c38 -15 37 -36 -19 -376 -32 -188 -62 -342 -71
-355 -14 -23 -18 -23 -199 -23 l-185 0 -18 29 c-11 18 -36 144 -71 360 -52
319 -53 332 -36 351 17 19 32 20 301 20 155 0 290 -3 298 -6z m-597 -296 c-3
-8 -6 -5 -6 6 -1 11 2 17 5 13 3 -3 4 -12 1 -19z m20 -120 c-3 -8 -6 -5 -6 6
-1 11 2 17 5 13 3 -3 4 -12 1 -19z m529 -301 c-3 -13 -15 -36 -27 -50 l-20
-27 -194 0 -193 0 -26 31 c-14 17 -26 38 -26 47 0 11 8 4 20 -16 11 -18 32
-37 46 -42 14 -6 93 -10 175 -10 177 0 210 9 230 64 14 39 25 41 15 3z"/>
</g>
</svg>
