<?xml version="1.0" standalone="no"?>
<!DOCTYPE svg PUBLIC "-//W3C//DTD SVG 20010904//EN"
 "http://www.w3.org/TR/2001/REC-SVG-20010904/DTD/svg10.dtd">
<svg version="1.0" xmlns="http://www.w3.org/2000/svg"
 width="108.000000pt" height="180.000000pt" viewBox="0 0 108.000000 180.000000"
 preserveAspectRatio="xMidYMid meet">

<g transform="translate(0.000000,180.000000) scale(0.100000,-0.100000)"
fill="#000000" stroke="none">
<path d="M382 1718 c-9 -9 -12 -97 -12 -335 l0 -323 -54 0 c-92 0 -86 33 -86
-490 0 -404 2 -460 16 -474 13 -14 52 -16 273 -16 186 0 260 3 269 12 17 17
17 939 0 956 -7 7 -34 12 -60 12 l-48 0 0 319 c0 277 -2 322 -16 335 -12 13
-40 16 -143 16 -85 0 -131 -4 -139 -12z m191 -635 c-29 -2 -77 -2 -105 0 -29
2 -6 3 52 3 58 0 81 -1 53 -3z m-301 -910 c8 -11 59 -13 252 -11 l241 3 5 190
6 190 2 -185 c1 -134 -1 -189 -10 -198 -9 -9 -79 -12 -255 -12 -229 0 -243 1
-253 19 -6 13 -9 113 -8 273 l3 253 2 -254 c2 -169 7 -259 15 -268z"/>
</g>
</svg>
